inDegrees=yes
name=ik_lifting_orientations
DataType=double
version=3
OpenSimVersion=4.5-2024-01-10-34fd6af
endheader
time	pelvis_tilt	pelvis_list	pelvis_rotation	pelvis_tx	pelvis_ty	pelvis_tz	hip_flexion_r	hip_adduction_r	hip_rotation_r	knee_angle_r	knee_angle_r_beta	ankle_angle_r	subtalar_angle_r	mtp_angle_r	hip_flexion_l	hip_adduction_l	hip_rotation_l	knee_angle_l	knee_angle_l_beta	ankle_angle_l	subtalar_angle_l	mtp_angle_l	lumbar_extension	lumbar_bending	lumbar_rotation	arm_flex_r	arm_add_r	arm_rot_r	elbow_flex_r	pro_sup_r	wrist_flex_r	wrist_dev_r	arm_flex_l	arm_add_l	arm_rot_l	elbow_flex_l	pro_sup_l	wrist_flex_l	wrist_dev_l
0.55	0.4126320754954376	0.2948378290981714	13.07094889269929	0	0.9399999998679526	0	43.04051752005805	-10.01293446951055	0	60.68556525693199	1.059162922167342	-4.916718203809598	0	0	43.04051752005805	-10.01293446951055	0	60.68556525693199	1.059162922167342	-4.916718203809598	0	0	-0.4657977171250283	-0.1913816698145982	0.7938758291257376	3.120660381894456	-10.11810668405857	3.055345437471219	0.1221606248764853	-0.2997902297341443	0	0	0	-10.89028030921649	0	90.76501708201863	-0.2997902297341443	0	0
0.5600000000000001	0.4125004714887879	0.2724214375218651	13.06950884314268	0	0.9399999998679526	0	43.0408946030289	-10.01292574183513	0	60.68546215105445	1.059161122630301	-4.91679156331361	0	0	43.0408946030289	-10.01292574183513	0	60.68546215105445	1.059161122630301	-4.91679156331361	0	0	-0.462011984990754	-0.1727530668771471	0.7975324965437099	3.116493113949562	-10.10935017323446	3.053498308110634	0.1225124283399077	-0.2997501882775798	0	0	0	-10.89068449910892	0	90.76491485000517	-0.2997501882775798	0	0
0.57	0.4112027768570181	0.2712470424697637	13.06905914113328	0	0.9399999998679526	0	43.0412735843289	-10.01291697151894	0	60.68535855075983	1.059159314464053	-4.916865270588509	0	0	43.0412735843289	-10.01291697151894	0	60.68535855075983	1.059159314464053	-4.916865270588509	0	0	-0.4612084847812342	-0.1703431762648738	0.7980447923453096	3.118098490334951	-10.11041263862909	3.052967307939317	0.1221795154680751	-0.2997099472070162	0	0	0	-10.89109068087979	0	90.76481210834507	-0.2997099472070162	0	0
0.58	0.4112577211281976	0.2710025100507016	13.06918934866907	0	0.9399999998679526	0	43.04164505766443	-10.01290837922524	0	60.68525699779764	1.059157542030498	-4.916937466534665	0	0	43.04164505766443	-10.01290837922524	0	60.68525699779764	1.059157542030498	-4.916937466534665	0	0	-0.461043796178219	-0.1700575117753598	0.798172910620386	3.11752360049897	-10.11079469803995	3.052711490702007	0.12219452578455	-0.2996705008910043	0	0	0	-10.89148885548685	0	90.76471139581857	-0.2996705008910043	0	0
0.59	0.4353042719108766	0.2710477355882956	13.08017061395854	0	0.9399999998679526	0	43.04191180772249	-10.01290224253158	0	60.68518376098336	1.059156263806955	-4.916988973891325	0	0	43.04191180772249	-10.01290224253158	0	60.68518376098336	1.059156263806955	-4.916988973891325	0	0	-0.5208248832569303	-0.1570604313781563	0.7641387051150017	2.554732789574496	-10.00693512570609	2.909108140474763	0.2203531567985129	-0.2996421274151861	0	0	0	-10.89177566570126	0	90.76463895400305	-0.2996421274151861	0	0
0.6	0.4153986521038004	0.2730266742656372	13.05619943686455	0	0.9399999998679526	0	43.04243198173831	-10.01289026172063	0	60.68504112097569	1.059153774269176	-4.917089546100524	0	0	43.04243198173831	-10.01289026172063	0	60.68504112097569	1.059153774269176	-4.917089546100524	0	0	-0.4567076152089843	-0.1645802270652556	0.8055582227053135	4.037918150608414	-9.029758877137924	2.684696191487197	0.05736920040840097	-0.2995868219859968	0	0	0	-10.89233450443945	0	90.76449775077833	-0.2995868219859968	0	0
0.61	0.4228631743481556	0.2762304670163251	13.07657380497041	0	0.9399999998679526	0	43.04295017111409	-10.01287831555216	0	60.68489920271735	1.059151297328299	-4.917189829109935	0	0	43.04295017111409	-10.01287831555216	0	60.68489920271735	1.059151297328299	-4.917189829109935	0	0	-0.4635915965541217	-0.1707667199282064	0.7908827217340776	3.469263611832468	-8.897553083413111	2.504159248090828	0.07529021788139313	-0.2995317508682962	0	0	0	-10.89289076506556	0	90.76435714576684	-0.2995317508682962	0	0
0.62	0.4160048692016995	0.2744660487266436	13.07245241643234	0	0.9399999998679526	0	43.04318035035597	-10.01287301137301	0	60.68483618466762	1.059150197455844	-4.917234342065747	0	0	43.04318035035597	-10.01287301137301	0	60.68483618466762	1.059150197455844	-4.917234342065747	0	0	-0.4606051904072047	-0.1699754569557666	0.79649484771872	3.458366768922159	-8.904514480609318	2.507129201062971	0.07564964293542048	-0.2995072899971551	0	0	0	-10.89313781473175	0	90.7642946934089	-0.2995072899971551	0	0
0.63	0.4135287648895776	0.2731514965474063	13.07115318053425	0	0.9399999998679526	0	43.04342637305245	-10.01286734000621	0	60.68476886458655	1.059149022498776	-4.917281936338629	0	0	43.04342637305245	-10.01286734000621	0	60.68476886458655	1.059149022498776	-4.917281936338629	0	0	-0.4584818320857308	-0.168872585495233	0.7980628076589558	3.461018168615289	-8.904066999436218	2.506812004497151	0.07558113934795642	-0.2994811500727358	0	0	0	-10.89340178059264	0	90.76422795416643	-0.2994811500727358	0	0
